<?xml version="1.0" standalone="no"?><!DOCTYPE svg PUBLIC "-//W3C//DTD SVG 1.1//EN" "http://www.w3.org/Graphics/SVG/1.1/DTD/svg11.dtd"><svg t="1648368629687" class="icon" viewBox="0 0 1024 1024" version="1.1" xmlns="http://www.w3.org/2000/svg" p-id="11971" xmlns:xlink="http://www.w3.org/1999/xlink" width="200" height="200"><defs><style type="text/css">@font-face { font-family: feedback-iconfont; src: url("//at.alicdn.com/t/font_1031158_u69w8yhxdu.woff2?t=1630033759944") format("woff2"), url("//at.alicdn.com/t/font_1031158_u69w8yhxdu.woff?t=1630033759944") format("woff"), url("//at.alicdn.com/t/font_1031158_u69w8yhxdu.ttf?t=1630033759944") format("truetype"); }
</style></defs><path d="M512 298.666667h85.333333v85.333333h-85.333333zM682.666667 298.666667h85.333333v85.333333h-85.333333zM682.666667 469.333333h85.333333v85.333334h-85.333333zM682.666667 640h85.333333v85.333333h-85.333333z" p-id="11972"></path><path d="M896 128H298.666667c-25.6 0-42.666667 17.066667-42.666667 42.666667v200.533333l-153.6 128c-12.8 8.533333-17.066667 21.333333-17.066667 34.133333V853.333333c0 25.6 17.066667 42.666667 42.666667 42.666667h768c25.6 0 42.666667-17.066667 42.666667-42.666667V170.666667c0-25.6-17.066667-42.666667-42.666667-42.666667z m-384 682.666667H384v-170.666667H298.666667v170.666667H170.666667v-260.266667l170.666666-140.8 170.666667 140.8V810.666667z m341.333333 0h-256v-277.333334c0-12.8-4.266667-25.6-17.066666-34.133333l-213.333334-179.2c-4.266667-4.266667-17.066667-8.533333-25.6-8.533333V213.333333h512v597.333334z" p-id="11973"></path></svg>