<?xml version="1.0" standalone="no"?><!DOCTYPE svg PUBLIC "-//W3C//DTD SVG 1.1//EN" "http://www.w3.org/Graphics/SVG/1.1/DTD/svg11.dtd"><svg t="1648368484206" class="icon" viewBox="0 0 1024 1024" version="1.1" xmlns="http://www.w3.org/2000/svg" p-id="5210" data-spm-anchor-id="a313x.7781069.0.i2" xmlns:xlink="http://www.w3.org/1999/xlink" width="200" height="200"><defs><style type="text/css">@font-face { font-family: feedback-iconfont; src: url("//at.alicdn.com/t/font_1031158_u69w8yhxdu.woff2?t=1630033759944") format("woff2"), url("//at.alicdn.com/t/font_1031158_u69w8yhxdu.woff?t=1630033759944") format("woff"), url("//at.alicdn.com/t/font_1031158_u69w8yhxdu.ttf?t=1630033759944") format("truetype"); }
</style></defs><path d="M845.106634 191.70516l-166.553317 0c-63.576991 0-115.306142 51.729152-115.306142 115.306142l0 89.682555-102.494349 0 0-89.682555c0-63.576991-51.729152-115.306142-115.306142-115.306142l-166.553317 0c-63.576991 0-115.306142 51.729152-115.306142 115.306142l0 409.977395c0 63.576991 51.729152 115.306142 115.306142 115.306142l166.553317 0c63.576991 0 115.306142-51.729152 115.306142-115.306142l0-89.682555 102.494349 0 0 89.682555c0 63.576991 51.729152 115.306142 115.306142 115.306142l166.553317 0c63.576991 0 115.306142-51.729152 115.306142-115.306142l0-409.977395C960.412776 243.434312 908.683625 191.70516 845.106634 191.70516zM883.542015 716.988698c0 21.194718-17.240663 38.435381-38.435381 38.435381l-166.553317 0c-21.194718 0-38.435381-17.240663-38.435381-38.435381l0-128.117936c0-21.225417-17.209964-38.435381-38.435381-38.435381l-179.36511 0c-21.225417 0-38.435381 17.209964-38.435381 38.435381l0 128.117936c0 21.194718-17.240663 38.435381-38.435381 38.435381l-166.553317 0c-21.194718 0-38.435381-17.240663-38.435381-38.435381l0-409.977395c0-21.194718 17.240663-38.435381 38.435381-38.435381l166.553317 0c21.194718 0 38.435381 17.240663 38.435381 38.435381l0 128.117936c0 21.225417 17.209964 38.435381 38.435381 38.435381l179.36511 0c21.225417 0 38.435381-17.209964 38.435381-38.435381l0-128.117936c0-21.194718 17.240663-38.435381 38.435381-38.435381l166.553317 0c21.194718 0 38.435381 17.240663 38.435381 38.435381L883.542015 716.988698z" p-id="5211" data-spm-anchor-id="a313x.7781069.0.i3" class=""></path></svg>