<?xml version="1.0" standalone="no"?><!DOCTYPE svg PUBLIC "-//W3C//DTD SVG 1.1//EN" "http://www.w3.org/Graphics/SVG/1.1/DTD/svg11.dtd"><svg t="1646234082965" class="icon" viewBox="0 0 1024 1024" version="1.1" xmlns="http://www.w3.org/2000/svg" p-id="946" xmlns:xlink="http://www.w3.org/1999/xlink" width="200" height="200"><defs><style type="text/css"></style></defs><path d="M512 42.667C771.2 42.667 981.333 252.8 981.333 512S771.2 981.333 512 981.333 42.667 771.2 42.667 512 252.8 42.667 512 42.667z m0 64c-223.85 0-405.333 181.482-405.333 405.333S288.149 917.333 512 917.333 917.333 735.851 917.333 512 735.851 106.667 512 106.667z m187.733 469.077a4.265 4.265 0 0 1 4.267 4.267l0.021 44.288v16.234a8.533 8.533 0 0 1-4.778 7.68c-2.923 1.408-5.27 2.56-7.04 3.371A425.045 425.045 0 0 1 512 691.392a425.11 425.11 0 0 1-187.2-43.2 8.533 8.533 0 0 1-4.8-7.68v-60.459a4.267 4.267 0 0 1 6.443-3.669A361.003 361.003 0 0 0 512 627.414a361.003 361.003 0 0 0 185.557-51.03 4.267 4.267 0 0 1 2.198-0.619zM362.667 384a42.667 42.667 0 1 1 0 85.333 42.667 42.667 0 0 1 0-85.333z m298.666 0a42.667 42.667 0 1 1 0 85.333 42.667 42.667 0 0 1 0-85.333z" p-id="947"></path></svg>